<?xml version="1.0" encoding="utf-8"?>
<svg xmlns="http://www.w3.org/2000/svg" viewBox="5.565 5.424 486.646 495.731" width="486.646px" height="495.731px">
  <path fill="#3F51B5" d="M 492.211 432.304 C 492.211 470.338 461.956 501.155 424.62 501.155 L 73.155 501.155 C 35.832 501.155 5.565 470.338 5.565 432.304 L 5.565 74.275 C 5.565 36.242 35.832 5.424 73.155 5.424 L 424.62 5.424 C 461.956 5.424 492.211 36.242 492.211 74.275 L 492.211 432.304 Z" style="stroke-width: 1;"/>
  <path fill="#FFF" d="M 323.679 292.693 L 278.149 292.693 L 278.149 471.706 L 210.561 471.706 L 210.561 292.693 L 170.007 292.693 L 170.007 237.611 L 210.561 237.611 L 210.561 204.427 C 210.588 156.12 230.284 127.449 286.153 127.449 L 332.222 127.449 L 332.222 182.531 L 301.305 182.531 C 279.557 182.531 278.149 190.793 278.149 206.257 L 278.149 237.611 L 332.222 237.611 L 323.679 292.693 Z" style="stroke-width: 1;"/>
</svg>