<?xml version="1.0" encoding="utf-8"?>
<svg xmlns="http://www.w3.org/2000/svg" viewBox="22.4221 101.4695 451.6807 427.7488" width="451.681px" height="427.749px">
  <g transform="matrix(0.08753302, -0.000657, -0.000772, -0.082959, -2314.23730692, -2245.53604562)" fill="#000000" stroke="none" style="transform-origin: 2562.5px 2560.88px;">
    <path d="M3050 5105 c-218 -53 -387 -218 -446 -436 -23 -85 -24 -254 -1 -327 69 -223 239 -382 457 -428 137 -29 302 -1 427 72 68 39 182 159 220 229 133 254 75 558 -144 755 -65 58 -191 123 -271 139 -70 14 -173 13 -242 -4z" style="fill: rgb(98, 58, 207);"/>
    <path d="M5072 4633 c-7 -32 -32 -124 -56 -206 -155 -514 -339 -817 -605 -995 -107 -72 -186 -99 -320 -112 -251 -24 -452 61 -1138 481 -294 180 -462 273 -609 339 -354 157 -632 220 -966 220 -330 0 -637 -67 -985 -216 -111 -48 -264 -126 -343 -177 l-45 -29 50 6 c123 13 687 18 811 7 174 -16 352 -45 495 -81 474 -120 640 -292 543 -562 -24 -65 -146 -289 -354 -648 -40 -69 -123 -213 -185 -320 -61 -107 -168 -292 -237 -410 -69 -118 -198 -341 -288 -495 -89 -154 -196 -336 -237 -404 -80 -133 -533 -922 -564 -983 -10 -21 -19 -40 -19 -44 0 -19 416 255 640 423 96 72 247 191 335 264 246 206 654 619 1021 1034 565 641 684 740 1001 844 184 61 344 88 723 126 307 31 500 75 645 147 363 181 595 537 690 1055 29 162 45 320 45 453 0 108 -20 340 -30 340 -3 0 -11 -26 -18 -57z" style="fill: rgb(98, 58, 207);"/>
    <path d="M2609 2201 c-8 -10 -50 -59 -94 -108 -44 -49 -125 -140 -180 -203 -55 -62 -128 -145 -162 -184 -35 -38 -63 -73 -63 -77 0 -16 643 -206 893 -265 42 -10 77 -20 77 -23 0 -14 -176 -362 -277 -551 -138 -257 -205 -369 -352 -590 -64 -96 -118 -179 -120 -183 -1 -5 30 8 70 28 372 186 915 623 1166 937 71 90 146 212 173 285 73 196 18 426 -127 526 -21 14 -128 62 -238 106 -204 81 -277 113 -569 246 -91 41 -169 75 -174 75 -5 0 -16 -9 -23 -19z" style="fill: rgb(98, 58, 207);"/>
  </g>
</svg>