<?xml version="1.0" encoding="utf-8"?>
<svg xmlns="http://www.w3.org/2000/svg" viewBox="12.6352 113.9647 468.7255 414.1498" width="468.726px" height="414.15px">
  <path d="M 219.384 133.32 C 218.029 136.038 216.248 137.926 214.009 140.128 C 191.869 163.763 180.684 197.416 180.042 227.716 C 180.013 228.881 180.013 228.881 179.984 230.069 C 178.856 284.931 199.154 338.288 238.599 381.007 C 238.999 381.442 239.398 381.878 239.811 382.328 C 250.256 393.62 261.908 404.572 275.197 413.278 C 275.758 413.647 276.319 414.015 276.896 414.395 C 287.088 421.047 297.648 426.921 309.051 431.836 C 309.051 432.367 309.051 432.9 309.051 433.448 C 279.221 434.492 248.338 428.258 222.071 415.736 C 220.274 414.88 218.464 414.044 216.655 413.21 C 175.282 393.76 144.988 359.584 130.93 320.463 C 120.491 290.003 120.743 258.238 130.633 227.716 C 131.091 226.239 131.091 226.239 131.559 224.732 C 138.482 204.464 151.203 185.295 167.231 169.626 C 168.281 168.535 169.329 167.442 170.377 166.348 C 183.333 153.498 198.156 143.785 214.809 134.934 C 217.555 133.32 217.555 133.32 219.384 133.32 Z" style="stroke-width: 1; fill: rgb(98, 58, 207);" transform="matrix(0.9999999999999999, 0, 0, 0.9999999999999999, -5.684341886080802e-14, -5.684341886080802e-14)"/>
  <path d="M 429.173 214.857 C 432.525 215.879 435.625 217.222 438.748 218.69 C 439.424 219.007 440.101 219.325 440.799 219.652 C 451.454 224.792 461.388 231.028 470.193 238.412 C 471.992 239.956 471.992 239.956 474.66 241.431 C 474.66 241.964 474.66 242.497 474.66 243.045 C 475.263 243.045 475.868 243.045 476.49 243.045 C 476.792 243.844 477.094 244.642 477.404 245.465 C 475.972 247.26 474.539 248.829 472.887 250.457 C 472.4 250.948 471.912 251.438 471.409 251.943 C 463.035 260.251 454.059 268.107 444.467 275.317 C 443.953 275.703 443.442 276.088 442.912 276.484 C 390.024 315.735 304.608 347.63 234.024 345.508 C 215.722 315.237 215.722 315.237 211.15 300.327 C 215.629 298.415 220.294 298.032 225.16 297.402 C 296.016 287.454 371.443 257.939 425.149 215.8 C 427.081 214.807 427.081 214.807 429.173 214.857 Z" style="stroke-width: 1; fill: rgb(98, 58, 207);" transform="matrix(0.9999999999999999, 0, 0, 0.9999999999999999, -5.684341886080802e-14, -5.684341886080802e-14)"/>
  <path d="M 418.22 149.909 C 422.84 153.389 427.262 157.053 431.656 160.752 C 432.255 161.237 432.853 161.721 433.468 162.22 C 438.582 166.484 442.745 171.505 447.013 176.418 C 447.911 177.447 448.821 178.471 449.735 179.491 C 458.393 189.295 474.66 209.017 474.66 222.068 C 471.784 220.943 469.87 219.611 467.627 217.681 C 441.426 196.87 403.6 185.88 369.439 180.921 C 368.513 180.78 368.513 180.78 367.569 180.636 C 345.986 177.456 322.431 178.594 300.817 180.921 C 301.304 176.363 302.693 172.784 304.933 168.668 C 305.261 168.067 305.587 167.466 305.925 166.847 C 314.552 151.488 329.076 138.875 347.251 132.665 C 354.49 130.533 361.909 129.469 369.439 128.48 C 366.465 127.689 363.492 126.899 360.518 126.11 C 359.677 125.887 358.833 125.662 357.967 125.432 C 357.153 125.215 356.338 125 355.5 124.777 C 354.753 124.578 354.005 124.379 353.235 124.175 C 340.648 120.956 329.27 124.004 318.03 129.387 C 300.516 138.968 287.844 154.886 281.603 172.046 C 281.34 173.127 281.097 174.211 280.875 175.298 C 279.781 180.182 278.849 183.865 274.011 186.762 C 270.849 187.971 267.585 188.802 264.251 189.56 C 261.323 190.226 258.443 191.009 255.552 191.789 C 254.098 192.181 252.641 192.567 251.183 192.947 C 244.907 194.597 238.974 196.708 233.051 199.176 C 232.185 199.536 231.318 199.897 230.424 200.269 C 220.685 204.416 211.249 209.06 202 214 C 196.557 199.138 211.533 172.854 219.125 159.744 C 225.248 149.569 232.828 140.424 241.343 131.708 C 242.168 130.787 242.991 129.868 243.813 128.946 C 249.673 122.598 254.49 119.57 263.951 118.292 C 266.24 117.964 268.488 117.535 270.755 117.099 C 323.196 107.668 377.225 119.782 418.22 149.909 Z" style="stroke-width: 1; fill: rgb(98, 58, 207);" transform="matrix(0.9999999999999999, 0, 0, 0.9999999999999999, -5.684341886080802e-14, -5.684341886080802e-14)"/>
  <path d="M 335.185 196.856 C 336.308 196.855 336.308 196.855 337.454 196.854 C 361.007 196.881 383.442 200.069 406.038 205.933 C 404.696 208.896 403.018 210.126 400.03 211.873 C 399.163 212.383 398.296 212.892 397.403 213.418 C 395.987 214.231 395.987 214.231 394.544 215.058 C 393.563 215.627 392.583 216.197 391.572 216.78 C 340.819 246.061 267.605 283.138 204.745 280.964 C 202.056 270.891 200.198 260.978 199.437 250.646 C 199.266 248.815 198.986 247.03 198.666 245.216 C 198.269 241.97 198.165 239.715 199.255 236.591 C 202.721 233.449 206.54 231.519 210.918 229.498 C 212.966 228.529 214.926 227.486 216.893 226.398 C 245.04 211.03 277.244 201.731 309.966 197.865 C 310.928 197.749 310.928 197.749 311.908 197.631 C 319.638 196.823 327.414 196.862 335.185 196.856 Z" style="stroke-width: 1; fill: rgb(98, 58, 207);" transform="matrix(0.9999999999999999, 0, 0, 0.9999999999999999, -5.684341886080802e-14, -5.684341886080802e-14)"/>
  <path d="M 395.058 324.531 C 395.964 325.33 395.964 325.33 396.888 326.145 C 396.841 328.646 396.667 331.026 396.374 333.507 C 396.286 334.258 396.199 335.009 396.108 335.782 C 393.675 354.957 388.215 373.833 377.677 390.819 C 376.769 392.283 375.895 393.76 375.021 395.24 C 370.735 402.335 365.433 408.125 359.374 414.085 C 358.229 415.261 357.085 416.438 355.943 417.616 C 353.884 419.665 351.797 421.686 349.653 423.666 C 349.17 424.113 348.686 424.561 348.187 425.022 C 346.042 426.561 344.731 427.287 341.99 427.802 C 339.187 427.231 336.655 426.222 334.041 425.18 C 333.28 424.885 332.519 424.59 331.734 424.286 C 312.152 416.545 294.072 406.103 278.3 393.273 C 276.84 392.086 275.362 390.919 273.869 389.768 C 264.199 382.316 256.134 374.044 248.664 364.871 C 248.966 364.338 249.267 363.806 249.579 363.257 C 252.131 362.781 252.131 362.781 255.573 362.387 C 256.853 362.235 258.135 362.082 259.417 361.928 C 260.096 361.85 260.776 361.771 261.475 361.69 C 307.52 356.297 354.422 344.737 395.058 324.531 Z" style="stroke-width: 1; fill: rgb(98, 58, 207);" transform="matrix(0.9999999999999999, 0, 0, 0.9999999999999999, -5.684341886080802e-14, -5.684341886080802e-14)"/>
  <path d="M 480.15 264.828 C 480.452 264.828 480.754 264.828 481.065 264.828 C 481.652 294.329 481.652 294.329 478.319 307.589 C 478.168 308.208 478.015 308.829 477.858 309.468 C 470.219 339.652 452.947 365.288 428.911 387.461 C 428.33 388.007 427.75 388.553 427.15 389.116 C 415.568 399.717 401.339 407.813 386.824 414.892 C 385.985 415.35 385.146 415.81 384.281 416.282 C 382.248 417.312 382.248 417.312 380.418 417.312 C 381.744 414.725 383.467 412.45 385.291 410.116 C 402.7 387.779 417.616 355.699 414.801 328.07 C 413.844 316.415 413.844 316.415 417.82 312.238 C 422.415 308.855 427.617 306.401 432.888 303.938 C 436.268 302.281 439.243 300.312 442.236 298.16 C 442.991 297.626 442.991 297.626 443.762 297.081 C 448.231 293.886 452.47 290.472 456.664 287 C 458.675 285.351 460.718 283.779 462.822 282.225 C 465.989 279.802 468.845 277.17 471.685 274.459 C 472.107 274.06 472.53 273.661 472.962 273.249 C 475.029 271.245 476.888 269.216 478.563 266.95 C 479.349 265.899 479.349 265.899 480.15 264.828 Z" style="stroke-width: 1; fill: rgb(98, 58, 207);" transform="matrix(0.9999999999999999, 0, 0, 0.9999999999999999, -5.684341886080802e-14, -5.684341886080802e-14)"/>
  <path d="M 168.146 415.699 C 173.098 418.554 177.839 421.625 182.588 424.732 C 183.472 425.308 183.472 425.308 184.372 425.894 C 184.903 426.242 185.433 426.588 185.98 426.946 C 187.388 427.864 187.388 427.864 189.191 428.607 C 188.712 431.946 186.732 433.494 184.089 435.815 C 183.655 436.2 183.22 436.584 182.771 436.981 C 181.332 438.252 179.885 439.514 178.436 440.776 C 177.429 441.662 176.423 442.548 175.416 443.435 C 173.302 445.295 171.184 447.151 169.064 449.004 C 166.361 451.363 163.668 453.729 160.975 456.099 C 158.393 458.373 155.806 460.642 153.218 462.912 C 152.731 463.339 152.246 463.765 151.745 464.206 C 143.066 471.824 143.066 471.824 138.986 474.885 C 133.841 478.777 129.147 483.091 124.379 487.335 C 122.581 488.934 120.779 490.531 118.977 492.126 C 113.859 496.659 108.747 501.196 103.638 505.737 C 100.502 508.525 97.36 511.307 94.216 514.089 C 93.021 515.147 91.829 516.206 90.64 517.267 C 88.98 518.746 87.315 520.22 85.648 521.692 C 85.161 522.131 84.672 522.569 84.168 523.02 C 80.494 526.251 77.83 528.072 72.59 528.095 C 67.398 527.968 65.066 526.408 61.268 523.356 C 58.795 520.591 58.753 518.01 58.747 514.582 C 60.26 508.547 66.61 504.2 71.371 500.031 C 72.235 499.268 73.097 498.505 73.961 497.741 C 76.296 495.68 78.634 493.623 80.977 491.566 C 83.434 489.406 85.887 487.241 88.342 485.077 C 92.464 481.444 96.589 477.812 100.718 474.182 C 105.476 469.999 110.231 465.813 114.982 461.621 C 120.057 457.146 125.135 452.674 130.214 448.202 C 131.67 446.921 133.124 445.639 134.579 444.357 C 136.874 442.332 139.173 440.311 141.473 438.292 C 142.708 437.205 143.942 436.117 145.174 435.03 C 149.15 431.543 153.179 428.169 157.444 424.956 C 159.753 423.188 161.882 421.299 164.03 419.38 C 164.811 418.682 165.595 417.984 166.403 417.265 C 167.266 416.489 167.266 416.489 168.146 415.699 Z" style="stroke-width: 1; fill: rgb(98, 58, 207);" transform="matrix(0.9999999999999999, 0, 0, 0.9999999999999999, -5.684341886080802e-14, -5.684341886080802e-14)"/>
  <path d="M 126.058 370.519 C 127.587 372.359 129.009 374.198 130.404 376.116 C 131.181 377.165 131.957 378.214 132.734 379.265 C 133.107 379.771 133.479 380.278 133.862 380.801 C 135.263 382.697 136.682 384.579 138.108 386.461 C 138.839 387.427 138.839 387.427 139.584 388.411 C 139.951 388.897 140.318 389.382 140.697 389.882 C 132.475 397.15 124.251 404.416 116.025 411.68 C 112.203 415.053 108.384 418.427 104.567 421.802 C 100.879 425.063 97.188 428.321 93.496 431.579 C 92.092 432.819 90.688 434.059 89.285 435.301 C 87.311 437.046 85.336 438.789 83.361 440.532 C 82.788 441.04 82.215 441.547 81.625 442.071 C 78.191 445.092 74.639 447.942 70.97 450.738 C 69.024 452.24 67.182 453.812 65.365 455.434 C 64.681 456.043 63.997 456.651 63.294 457.277 C 62.582 457.914 61.871 458.55 61.138 459.206 C 59.594 460.577 58.051 461.949 56.506 463.321 C 54.099 465.463 51.693 467.607 49.291 469.753 C 46.953 471.838 44.61 473.917 42.267 475.998 C 41.548 476.642 40.829 477.287 40.089 477.95 C 39.081 478.843 39.081 478.843 38.053 479.756 C 37.465 480.278 36.877 480.804 36.273 481.344 C 32.624 484.157 29.51 484.635 24.786 484.532 C 20.399 484.003 17.349 482.232 14.547 479.183 C 12.773 475.449 12.133 472.66 13.554 468.749 C 15.496 464.996 18.651 462.375 21.957 459.521 C 22.919 458.673 22.919 458.673 23.9 457.808 C 25.249 456.623 26.605 455.442 27.963 454.264 C 30.05 452.453 32.121 450.63 34.192 448.805 C 35.507 447.653 36.823 446.502 38.139 445.351 C 38.761 444.805 39.384 444.258 40.025 443.694 C 40.601 443.195 41.179 442.697 41.774 442.182 C 42.281 441.741 42.789 441.3 43.313 440.845 C 44.626 439.902 44.626 439.902 46.455 439.902 C 46.455 439.37 46.455 438.838 46.455 438.29 C 47.734 437.181 47.734 437.181 49.544 435.869 C 55.522 431.382 61.103 426.525 66.185 421.245 C 69.043 418.293 72.229 415.822 75.553 413.285 C 78.079 411.251 80.263 409.038 82.476 406.743 C 84.682 404.481 86.981 402.404 89.459 400.37 C 90.063 400.37 90.667 400.37 91.289 400.37 C 91.289 399.837 91.289 399.306 91.289 398.756 C 92.428 397.773 92.428 397.773 94.128 396.56 C 97.899 393.733 101.387 390.718 104.863 387.615 C 105.699 386.872 105.699 386.872 106.554 386.111 C 108.888 384.031 111.219 381.947 113.547 379.859 C 115.261 378.324 116.981 376.793 118.703 375.262 C 119.23 374.785 119.759 374.309 120.303 373.818 C 124.02 370.519 124.02 370.519 126.058 370.519 Z" style="stroke-width: 1; fill: rgb(98, 58, 207);" transform="matrix(0.9999999999999999, 0, 0, 0.9999999999999999, -5.684341886080802e-14, -5.684341886080802e-14)"/>
  <path d="M 96.779 310.816 C 97.685 310.816 98.591 310.816 99.524 310.816 C 99.71 311.523 99.71 311.523 99.9 312.242 C 100.477 314.423 101.058 316.603 101.641 318.782 C 101.835 319.524 102.03 320.264 102.231 321.027 C 102.428 321.765 102.627 322.504 102.83 323.265 C 103.008 323.932 103.184 324.599 103.367 325.288 C 104.03 327.525 104.759 329.733 105.518 331.946 C 105.764 332.674 106.013 333.4 106.269 334.149 C 106.459 334.702 106.648 335.256 106.843 335.827 C 97.488 344.114 88.127 352.397 78.759 360.673 C 74.41 364.517 70.063 368.362 65.72 372.21 C 61.53 375.923 57.335 379.631 53.136 383.337 C 51.535 384.752 49.933 386.169 48.334 387.589 C 46.098 389.573 43.856 391.552 41.612 393.529 C 40.619 394.414 40.619 394.414 39.603 395.318 C 38.991 395.855 38.378 396.395 37.745 396.95 C 37.215 397.417 36.686 397.886 36.141 398.369 C 32.173 401.369 28.452 401.618 23.367 401.538 C 19.26 400.951 16.978 399.145 14.431 396.336 C 12.32 393.388 12.387 390.87 13.035 387.442 C 14.443 382.789 18.223 380.091 22.224 377.127 C 26.703 373.644 30.837 369.831 35.031 366.081 C 36.284 364.967 37.55 363.862 38.819 362.756 C 40.808 360.979 42.666 359.151 44.512 357.257 C 47.195 354.569 49.937 352.175 53.1 349.933 C 55.278 348.292 57.245 346.492 59.265 344.701 C 60.187 343.891 61.111 343.081 62.035 342.271 C 64.761 339.883 67.483 337.492 70.204 335.099 C 71.371 334.075 72.539 333.051 73.707 332.029 C 82.152 324.675 82.152 324.675 90.086 316.897 C 91.897 315.03 93.865 313.333 95.864 311.622 C 96.167 311.356 96.467 311.091 96.779 310.816 Z" style="stroke-width: 1; fill: rgb(98, 58, 207);" transform="matrix(0.9999999999999999, 0, 0, 0.9999999999999999, -5.684341886080802e-14, -5.684341886080802e-14)"/>
  <path d="M 233.001 448.139 C 233.64 448.35 234.279 448.561 234.939 448.777 C 236.274 449.113 237.612 449.441 238.953 449.761 C 240.265 450.103 241.577 450.448 242.888 450.794 C 243.546 450.967 244.204 451.137 244.884 451.314 C 248.609 452.291 252.304 453.322 255.983 454.426 C 251.624 459.051 246.948 463.304 242.112 467.542 C 241.318 468.241 240.525 468.939 239.707 469.659 C 237.187 471.878 234.662 474.094 232.137 476.31 C 230.436 477.805 228.738 479.299 227.039 480.794 C 223.253 484.124 219.466 487.452 215.678 490.777 C 214.192 492.082 212.711 493.392 211.232 494.704 C 209.16 496.518 206.999 498.212 204.802 499.907 C 201.579 502.443 198.747 505.022 196.013 507.957 C 194.618 509.351 193.146 510.508 191.536 511.708 C 186.848 515.204 182.603 519.09 178.306 522.949 C 177.729 523.464 177.153 523.979 176.56 524.509 C 176.041 524.977 175.523 525.442 174.988 525.924 C 171.843 528.512 168.368 528.11 164.273 528.067 C 160.702 527.751 158.839 526.784 156.252 524.616 C 153.8 521.446 153.185 518.769 153.053 515.036 C 154.42 509.877 159.774 505.91 163.835 502.276 C 164.5 501.675 165.167 501.074 165.851 500.455 C 168.044 498.477 170.243 496.506 172.446 494.539 C 173.577 493.526 173.577 493.526 174.729 492.495 C 178.713 488.934 182.705 485.381 186.7 481.83 C 190.006 478.89 193.296 475.938 196.575 472.973 C 200.538 469.391 204.523 465.831 208.53 462.285 C 210.05 460.932 211.564 459.57 213.068 458.201 C 215.169 456.29 217.302 454.409 219.444 452.533 C 220.058 451.961 220.673 451.39 221.307 450.801 C 225.33 447.353 227.585 446.588 233.001 448.139 Z" style="stroke-width: 1; fill: rgb(98, 58, 207);" transform="matrix(0.9999999999999999, 0, 0, 0.9999999999999999, -5.684341886080802e-14, -5.684341886080802e-14)"/>
  <path d="M 427.996 214.807 C 428.601 214.807 429.204 214.807 429.827 214.807 C 430.128 217.47 430.431 220.132 430.742 222.875 C 429.835 222.609 428.929 222.343 427.996 222.068 C 425.583 222.387 425.583 222.387 423.422 222.875 C 424.327 222.609 425.233 222.343 426.167 222.068 C 426.167 221.536 426.167 221.004 426.167 220.455 C 425.563 220.189 424.96 219.923 424.337 219.648 C 425.502 218.003 426.726 216.389 427.996 214.807 Z" style="stroke-width: 1; fill: rgb(98, 58, 207);" transform="matrix(0.9999999999999999, 0, 0, 0.9999999999999999, -5.684341886080802e-14, -5.684341886080802e-14)"/>
  <path d="M 169.976 166.4 C 170.882 167.198 171.787 167.997 172.721 168.82 C 171.463 170.433 171.463 170.433 169.976 172.046 C 169.372 172.046 168.769 172.046 168.146 172.046 C 167.844 171.248 167.543 170.45 167.231 169.626 C 168.548 167.862 168.548 167.862 169.976 166.4 Z" style="stroke-width: 1; fill: rgb(98, 58, 207);" transform="matrix(0.9999999999999999, 0, 0, 0.9999999999999999, -5.684341886080802e-14, -5.684341886080802e-14)"/>
  <path d="M 90.374 483.469 C 91.28 483.736 92.186 484.002 93.119 484.277 C 91.61 485.341 90.099 486.407 88.544 487.504 C 88.544 485.084 88.544 485.084 90.374 483.469 Z M 83.969 489.118 C 84.271 489.65 84.573 490.182 84.884 490.731 C 84.28 490.464 83.676 490.198 83.055 489.923 C 83.356 489.658 83.658 489.392 83.969 489.118 Z" style="stroke-width: 1; fill: rgb(98, 58, 207);" transform="matrix(0.9999999999999999, 0, 0, 0.9999999999999999, -5.684341886080802e-14, -5.684341886080802e-14)"/>
</svg>